<svg width="786" height="741" viewBox="0 0 786 741" fill="none" xmlns="http://www.w3.org/2000/svg">
<g id="No Results">
<g id="circle">
<path id="Stroke 1" d="M28.3315 339.141V346.822" stroke="#D2D8DF" stroke-width="2.4929" stroke-linecap="round"/>
<g id="Group 8">
<path id="Stroke 2" d="M11.0801 343.302L17.3565 349.763" stroke="#D2D8DF" stroke-width="2.4929" stroke-linecap="round"/>
<path id="Stroke 4" d="M3.73975 360.501H12.6145" stroke="#D2D8DF" stroke-width="2.4929" stroke-linecap="round"/>
<path id="Stroke 6" d="M10.3608 378.006L16.6373 371.545" stroke="#D2D8DF" stroke-width="2.4929" stroke-linecap="round"/>
</g>
<path id="Stroke 9" d="M28.3315 380.106V372.425" stroke="#D2D8DF" stroke-width="2.4929" stroke-linecap="round"/>
<path id="Stroke 10" d="M41.1338 374.985L36.0132 369.865" stroke="#D2D8DF" stroke-width="2.4929" stroke-linecap="round"/>
<path id="Stroke 11" d="M51.3743 362.184H43.6934" stroke="#D2D8DF" stroke-width="2.4929" stroke-linecap="round"/>
<path id="Stroke 12" d="M46.2549 344.261L41.1343 349.382" stroke="#D2D8DF" stroke-width="2.4929" stroke-linecap="round"/>
<path id="Stroke 13" d="M440.543 3.73938V8.86001" stroke="#D2D8DF" stroke-width="2.4929" stroke-linecap="round"/>
<path id="Stroke 15" d="M425.181 19.1012H430.302" stroke="#D2D8DF" stroke-width="2.4929" stroke-linecap="round"/>
<path id="Stroke 16" d="M440.543 34.4633V29.3427" stroke="#D2D8DF" stroke-width="2.4929" stroke-linecap="round"/>
<path id="Stroke 17" d="M453.345 19.1012H448.225" stroke="#D2D8DF" stroke-width="2.4929" stroke-linecap="round"/>
<path id="Stroke 18" d="M143.546 218.806V226.487" stroke="#D2D8DF" stroke-width="2.4929" stroke-linecap="round"/>
<path id="Stroke 19" d="M120.504 241.849H128.185" stroke="#D2D8DF" stroke-width="2.4929" stroke-linecap="round"/>
<path id="Stroke 20" d="M143.546 262.331V254.65" stroke="#D2D8DF" stroke-width="2.4929" stroke-linecap="round"/>
<path id="Stroke 21" d="M164.028 241.849H156.347" stroke="#D2D8DF" stroke-width="2.4929" stroke-linecap="round"/>
<g id="Group 42">
<path id="Stroke 22" d="M694.665 497.981C700.784 497.981 705.746 502.945 705.746 509.065C705.746 515.187 700.784 520.149 694.665 520.149C688.546 520.149 683.584 515.187 683.584 509.065" stroke="#D2D8DF" stroke-width="2.4929" stroke-linecap="round"/>
<path id="Fill 26" fill-rule="evenodd" clip-rule="evenodd" d="M745.377 397.423C751.956 395.37 762.042 387.324 764.376 378.666C766.493 386.319 775.368 395.37 783.376 396.055C774.362 399.247 765.744 408.728 764.376 416.177C763.446 408.585 751.526 398.529 745.377 397.423Z" fill="#EBECEE"/>
<path id="Fill 28" fill-rule="evenodd" clip-rule="evenodd" d="M69.9932 494.567C73.284 493.541 78.3246 489.518 79.4918 485.19C80.5504 489.014 84.9867 493.541 88.9904 493.884C84.4846 495.478 80.1765 500.22 79.4918 503.944C79.0267 500.148 73.0666 495.119 69.9932 494.567Z" fill="#EBECEE"/>
<path id="Fill 30" fill-rule="evenodd" clip-rule="evenodd" d="M131.063 138.405C131.063 143.153 127.216 146.999 122.471 146.999C117.724 146.999 113.878 143.153 113.878 138.405C113.878 133.659 117.724 129.81 122.471 129.81C127.216 129.81 131.063 133.659 131.063 138.405Z" fill="#D1D8DF"/>
<path id="Fill 32" fill-rule="evenodd" clip-rule="evenodd" d="M704.817 161.482C704.817 169.416 698.385 175.847 690.456 175.847C682.522 175.847 676.093 169.416 676.093 161.482C676.093 153.549 682.522 147.118 690.456 147.118C698.385 147.118 704.817 153.549 704.817 161.482Z" fill="#EBECEE"/>
<path id="Stroke 36" fill-rule="evenodd" clip-rule="evenodd" d="M291.644 654.745C291.644 658.713 288.429 661.929 284.463 661.929C280.498 661.929 277.283 658.713 277.283 654.745C277.283 650.778 280.498 647.562 284.463 647.562C288.429 647.562 291.644 650.778 291.644 654.745Z" stroke="#D2D8DF" stroke-width="2.4929" stroke-linecap="round"/>
<path id="Stroke 38" fill-rule="evenodd" clip-rule="evenodd" d="M287.372 83.1906C287.372 87.939 283.525 91.7851 278.78 91.7851C274.035 91.7851 270.188 87.939 270.188 83.1906C270.188 78.4444 274.035 74.5961 278.78 74.5961C283.525 74.5961 287.372 78.4444 287.372 83.1906Z" stroke="#D2D8DF" stroke-width="2.4929" stroke-linecap="round"/>
<path id="Stroke 40" fill-rule="evenodd" clip-rule="evenodd" d="M506.542 734.291C501.052 736.38 494.907 733.621 492.818 728.131C490.729 722.639 493.486 716.491 498.978 714.404C504.467 712.314 510.611 715.071 512.7 720.563C514.791 726.055 512.033 732.201 506.542 734.291Z" stroke="#D2D8DF" stroke-width="2.4929" stroke-linecap="round"/>
</g>
</g>
<g id="search">
<g id="documents">
<path id="Fill 1" fill-rule="evenodd" clip-rule="evenodd" d="M503.27 531.165H293.312C278.534 531.165 266.438 519.032 266.438 504.205V204.795C266.438 189.967 278.534 177.841 293.312 177.841H503.27C518.054 177.841 530.15 189.967 530.15 204.795V504.205C530.15 519.032 518.054 531.165 503.27 531.165Z" fill="#E0E2EE"/>
<path id="Fill 3" fill-rule="evenodd" clip-rule="evenodd" d="M485.347 543.966H275.389C260.612 543.966 248.515 531.834 248.515 517.006V217.596C248.515 202.769 260.612 190.642 275.389 190.642H485.347C500.131 190.642 512.228 202.769 512.228 217.596V517.006C512.228 531.834 500.131 543.966 485.347 543.966Z" fill="#E8EBF2"/>
<path id="Fill 5" fill-rule="evenodd" clip-rule="evenodd" d="M467.915 554.073H257.523C242.714 554.073 230.593 541.991 230.593 527.224V229.054C230.593 214.288 242.714 202.212 257.523 202.212H467.915C482.729 202.212 494.85 214.288 494.85 229.054V527.224C494.85 541.991 482.729 554.073 467.915 554.073Z" fill="#D8DBEA"/>
<path id="Fill 8" fill-rule="evenodd" clip-rule="evenodd" d="M467.915 554.073H257.523C242.714 554.073 230.593 541.991 230.593 527.224V229.054C230.593 214.288 242.714 202.212 257.523 202.212H467.915C482.729 202.212 494.85 214.288 494.85 229.054V527.224C494.85 541.991 482.729 554.073 467.915 554.073Z" fill="#F1F2F7"/>
<path id="Fill 11" fill-rule="evenodd" clip-rule="evenodd" d="M437.588 293.055H282.188C277.75 293.055 274.118 289.599 274.118 285.377C274.118 281.149 277.75 277.693 282.188 277.693H437.588C442.026 277.693 445.659 281.149 445.659 285.377C445.659 289.599 442.026 293.055 437.588 293.055Z" fill="#E0E2EE"/>
<path id="Fill 13" fill-rule="evenodd" clip-rule="evenodd" d="M437.588 339.141H282.188C277.75 339.141 274.118 335.685 274.118 331.463C274.118 327.235 277.75 323.779 282.188 323.779H437.588C442.026 323.779 445.659 327.235 445.659 331.463C445.659 335.685 442.026 339.141 437.588 339.141Z" fill="#E0E2EE"/>
<path id="Fill 15" fill-rule="evenodd" clip-rule="evenodd" d="M437.588 385.227H282.188C277.75 385.227 274.118 381.771 274.118 377.548C274.118 373.326 277.75 369.865 282.188 369.865H437.588C442.026 369.865 445.659 373.326 445.659 377.548C445.659 381.771 442.026 385.227 437.588 385.227Z" fill="#E0E2EE"/>
<path id="Fill 17" fill-rule="evenodd" clip-rule="evenodd" d="M437.588 431.312H282.188C277.75 431.312 274.118 427.856 274.118 423.634C274.118 419.406 277.75 415.95 282.188 415.95H437.588C442.026 415.95 445.659 419.406 445.659 423.634C445.659 427.856 442.026 431.312 437.588 431.312Z" fill="#E0E2EE"/>
<path id="Fill 19" fill-rule="evenodd" clip-rule="evenodd" d="M363.305 477.398H282.223C277.766 477.398 274.118 473.942 274.118 469.72C274.118 465.492 277.766 462.036 282.223 462.036H363.305C367.761 462.036 371.41 465.492 371.41 469.72C371.41 473.942 367.761 477.398 363.305 477.398Z" fill="#E0E2EE"/>
</g>
<g id="search_2">
<path id="Fill 21" fill-rule="evenodd" clip-rule="evenodd" d="M526.962 417.836C495.888 448.905 447.782 452.41 412.857 428.423C408.394 425.302 404.146 421.797 400.184 417.836C398.145 415.804 396.223 413.706 394.411 411.498C390.788 407.087 387.615 402.384 385.015 397.524C380.435 389.315 377.32 380.605 375.62 371.602C370.133 343.367 378.337 312.976 400.184 291.139C422.084 269.237 452.48 261.087 480.719 266.52C489.718 268.272 498.436 271.386 506.646 275.914C511.513 278.572 516.152 281.745 520.57 285.367C522.772 287.172 524.87 289.1 526.903 291.139C530.871 295.1 534.429 299.341 537.491 303.81C561.489 338.722 557.977 386.827 526.962 417.836Z" fill="white" fill-opacity="0.1"/>
<path id="Fill 23" fill-rule="evenodd" clip-rule="evenodd" d="M518.266 411.718C485.938 444.052 433.548 444.046 401.214 411.718C368.922 379.426 368.922 327.029 401.256 294.701C433.548 262.409 485.938 262.409 518.23 294.701C550.558 327.029 550.558 379.426 518.266 411.718ZM534.857 278.091C493.362 236.595 426.119 236.595 384.623 278.091C343.133 319.581 343.097 386.866 384.587 428.362C422.353 466.116 481.547 469.521 523.181 438.523C527.248 435.491 531.164 432.092 534.9 428.362C538.629 424.626 542.028 420.71 545.054 416.644C576.053 375.003 572.618 315.852 534.857 278.091Z" fill="#E0E2EE"/>
<path id="Fill 25" fill-rule="evenodd" clip-rule="evenodd" d="M698.162 584.782L696.42 586.524C684.895 598.055 666.022 598.055 654.49 586.524L548.071 480.105L591.743 436.433L698.162 542.852C709.694 554.383 709.694 573.25 698.162 584.782Z" fill="url(#paint0_linear_27_1219)"/>
<path id="Fill 27" fill-rule="evenodd" clip-rule="evenodd" d="M547.347 413.39L578.794 444.837L556.469 467.157L525.028 435.709C529.177 432.616 533.167 429.147 536.986 425.341C540.791 421.536 544.26 417.539 547.347 413.39Z" fill="#E0E2EE"/>
<path id="Fill 29" fill-rule="evenodd" clip-rule="evenodd" d="M696.57 541.543L653.176 584.931L645.363 577.113L688.751 533.725L696.57 541.543Z" fill="#00C271"/>
<path id="Fill 31" fill-rule="evenodd" clip-rule="evenodd" d="M594.157 437.935L549.574 482.519L542.95 475.896L587.533 431.312L594.157 437.935Z" fill="url(#paint1_linear_27_1219)"/>
<path id="Fill 33" fill-rule="evenodd" clip-rule="evenodd" d="M496.864 283.578L387.53 392.907C383.412 385.528 380.613 377.697 379.09 369.603L473.559 275.133C481.648 276.714 489.484 279.508 496.864 283.578Z" fill="white" fill-opacity="0.5"/>
<path id="Fill 35" fill-rule="evenodd" clip-rule="evenodd" d="M532.709 309.565L414.507 421.071C410.274 418.284 406.244 415.148 402.487 411.603C400.553 409.779 398.724 407.907 397.012 405.931L516.655 293.055C518.749 294.676 520.739 296.401 522.667 298.226C526.424 301.771 529.805 305.566 532.709 309.565Z" fill="white" fill-opacity="0.5"/>
</g>
</g>
</g>
<defs>
<linearGradient id="paint0_linear_27_1219" x1="627.441" y1="357.063" x2="468.701" y2="515.802" gradientUnits="userSpaceOnUse">
<stop stop-color="#00C271"/>
<stop offset="1" stop-color="#0A9748"/>
</linearGradient>
<linearGradient id="paint1_linear_27_1219" x1="568.553" y1="405.709" x2="517.347" y2="456.915" gradientUnits="userSpaceOnUse">
<stop stop-color="#FF404E"/>
<stop offset="1" stop-color="#D25827"/>
</linearGradient>
</defs>
</svg>
